<svg xmlns="http://www.w3.org/2000/svg" width="40" height="48" viewBox="0 0 40 48"><g transform="translate(-948 -554)"><path d="M4,6A4,4,0,0,1,8,2h9.172A4,4,0,0,1,20,3.171L26.828,10A4,4,0,0,1,28,12.828V30a4,4,0,0,1-4,4H8a4,4,0,0,1-4-4ZM8,18a2,2,0,0,1,2-2H22a2,2,0,0,1,0,4H10A2,2,0,0,1,8,18Zm2,6a2,2,0,0,0,0,4H22a2,2,0,0,0,0-4Z" transform="translate(944 552)" fill="#5c667a" fill-rule="evenodd"/><path d="M12,0A12,12,0,1,1,0,12,12,12,0,0,1,12,0Z" transform="translate(964 578)" fill="rgba(0,0,0,0.9)"/><g transform="translate(965.995 580.985)"><path d="M5.5,13a3.5,3.5,0,0,1-.369-6.98,4,4,0,0,1,7.753-1.977A4.5,4.5,0,1,1,13.5,13H11V9.413l1.293,1.293a1,1,0,1,0,1.414-1.414l-3-3a1,1,0,0,0-1.414,0l-3,3a1,1,0,1,0,1.414,1.414L9,9.414V13Z" fill="#fff"/><path d="M9,13h2v3a1,1,0,0,1-2,0Z" fill="#fff"/></g></g></svg>