<svg xmlns="http://www.w3.org/2000/svg" width="32" height="32" viewBox="0 0 32 32"><g transform="translate(-6628 73)"><path d="M15,0a1,1,0,1,0,1,1A1,1,0,0,0,15,0ZM9,1a1,1,0,1,0,1,1A1,1,0,0,0,9,1ZM21,1a1,1,0,1,0,1,1A1,1,0,0,0,21,1ZM3,3A1,1,0,1,0,4,4,1,1,0,0,0,3,3ZM27,3a1,1,0,1,0,1,1A1,1,0,0,0,27,3ZM21.99,4.971A1,1,0,0,0,21.769,5H8.152a.985.985,0,0,0-1,.453l-5.826,6.8A1,1,0,0,0,1.383,13.8L14.269,26.684l.01.012.014.012a1,1,0,0,0,.154.127l.008,0q.036.024.074.045l.016.006a1,1,0,0,0,.471.111l.039,0,.051,0h.01l.018,0q.04-.005.08-.014t.078-.02l.019-.006.021-.008a1,1,0,0,0,.16-.072l0,0q.034-.019.066-.041l.016-.012a1,1,0,0,0,.131-.109l.008-.006.014-.016L28.619,13.795a1,1,0,0,0,.057-1.543L22.893,5.506A1,1,0,0,0,21.99,4.971ZM15,7.723,18.055,12H11.945Zm7.451.338L25.826,12h-4.5Zm-14.9,0L8.674,12h-4.5ZM11.457,14h7.086L15,23.213Z" transform="translate(6629.013 -71)" fill="#fff"/><circle cx="16" cy="16" r="16" transform="translate(6628 -73)" fill="none"/></g></svg>